<svg width="64" height="64" viewBox="0 0 64 64" fill="none" xmlns="http://www.w3.org/2000/svg">
<path d="M59.9999 58.2C59.9999 60.3 58.2999 62 56.0999 62H10.7999C8.6999 62 6.8999 60.3 6.8999 58.2V13.9C6.8999 11.8 8.5999 10.1 10.7999 10.1H56.1999C58.2999 10.1 60.0999 11.8 60.0999 13.9V58.2H59.9999Z" fill="#93A2AA"/>
<path d="M57.1 13.9C57.1 11.8 55.4 10.1 53.2 10.1H7.9C5.8 10.1 4 11.8 4 13.9V35.2H57.1V13.9Z" fill="#ED4C5C"/>
<path d="M4 35.1V58.2C4 60.3 5.7 62 7.9 62H53.3C55.4 62 57.2 60.3 57.2 58.2V35.1H4Z" fill="#D9E3E8"/>
<path d="M13.1 19.8C14.7016 19.8 16 18.5464 16 17C16 15.4536 14.7016 14.2 13.1 14.2C11.4983 14.2 10.2 15.4536 10.2 17C10.2 18.5464 11.4983 19.8 13.1 19.8Z" fill="#3E4347"/>
<path d="M24.7999 19.8C26.4015 19.8 27.6999 18.5464 27.6999 17C27.6999 15.4536 26.4015 14.2 24.7999 14.2C23.1983 14.2 21.8999 15.4536 21.8999 17C21.8999 18.5464 23.1983 19.8 24.7999 19.8Z" fill="#3E4347"/>
<path d="M36.2999 19.8C37.9015 19.8 39.1999 18.5464 39.1999 17C39.1999 15.4536 37.9015 14.2 36.2999 14.2C34.6983 14.2 33.3999 15.4536 33.3999 17C33.3999 18.5464 34.6983 19.8 36.2999 19.8Z" fill="#3E4347"/>
<path d="M47.9 19.8C49.5016 19.8 50.8 18.5464 50.8 17C50.8 15.4536 49.5016 14.2 47.9 14.2C46.2984 14.2 45 15.4536 45 17C45 18.5464 46.2984 19.8 47.9 19.8Z" fill="#3E4347"/>
<path d="M40.5999 4.60001C39.8999 3.40001 38.9 2.10001 37 2.00001C35.2 1.90001 35.1 4.10001 36.9 4.20001C36.9 4.20001 37.3 4.50001 37.2 4.40001C37.6 4.80001 37.7999 5.30001 38.0999 5.80001C38.6999 7.20001 38.9 8.70001 38.9 10.2H41.7999C41.6999 8.30001 41.3999 6.30001 40.5999 4.60001V4.60001ZM36.9 4.20001C37 4.20001 37 4.20001 36.9 4.20001V4.20001ZM29 4.60001C28.4 3.40001 27.3 2.10001 25.4 2.00001C23.6 1.90001 23.5 4.10001 25.3 4.20001C25.3 4.20001 25.7 4.50001 25.6 4.40001C26 4.80001 26.2 5.30001 26.5 5.80001C27.1 7.20001 27.3 8.70001 27.3 10.2H30.2C30.1 8.30001 29.9 6.30001 29 4.60001V4.60001ZM17.4 4.60001C16.8 3.40001 15.7 2.10001 13.8 2.00001C12 1.90001 12 4.10001 13.8 4.20001C13.8 4.20001 14.2 4.50001 14.1 4.40001C14.5 4.80001 14.7 5.30001 15 5.80001C15.6 7.20001 15.8 8.70001 15.8 10.2H18.7C18.6 8.30001 18.3 6.30001 17.4 4.60001ZM52.0999 4.60001C51.4999 3.40001 50.4 2.10001 48.5 2.00001C46.7 1.90001 46.6 4.10001 48.4 4.20001C48.4 4.20001 48.8 4.50001 48.7 4.40001C49.1 4.80001 49.2999 5.30001 49.5999 5.80001C50.1999 7.20001 50.4 8.70001 50.4 10.2H53.2999C53.2999 8.30001 52.9999 6.30001 52.0999 4.60001V4.60001Z" fill="#3E4347"/>
<path d="M36.3 16C36 16 36.7 16.1 36.3 16C36.6 16.1 35.9 15.7 36.1 15.8C35.7 15.4 35.5 14.9 35.3 14.4C34.7 13 34.5 11.5 34.5 10C34.5 8.5 34.7 7 35.3 5.6C35.5 5.1 35.7 4.8 36.1 4.3C36.2 4.2 36.2 4.2 36.5 4C36.2 4.2 36.5 4 36.6 4C36.4 4.1 36.4 4.1 36.5 4H36.4C38.3 3.9 38.3 1.7 36.4 1.8C34.5 1.9 33.5 3.2 32.8 4.4C31.9 6.1 31.7 8.1 31.7 9.9C31.7 11.7 32 13.7 32.8 15.4C33.4 16.6 34.5 17.9 36.4 18C38.2 18.3 38.2 16.1 36.3 16V16ZM24.8 16C24.4 16 25.1 16.1 24.8 16C25.1 16.1 24.4 15.7 24.6 15.8C24.2 15.4 24 14.9 23.7 14.4C23.1 13 22.9 11.5 22.9 10C22.9 8.5 23.1 7 23.7 5.6C23.9 5.1 24.1 4.8 24.5 4.3C24.5 4.2 24.6 4.2 24.9 4C24.6 4.2 24.9 4 25 4C24.8 4.1 24.8 4.1 24.9 4H24.8C26.7 3.9 26.7 1.7 24.8 1.8C22.9 1.9 21.9 3.2 21.2 4.4C20.3 6.1 20.1 8.1 20.1 9.9C20.1 11.7 20.4 13.7 21.2 15.4C21.8 16.6 22.9 17.9 24.8 18C26.6 18.3 26.6 16.1 24.8 16ZM13.2 16C12.9 16 13.5 16.1 13.2 16C13.5 16.1 12.8 15.7 13 15.8C12.6 15.4 12.4 14.9 12.1 14.4C11.5 13 11.3 11.5 11.3 10C11.3 8.5 11.5 7 12.1 5.6C12.3 5.1 12.5 4.8 12.9 4.3C12.9 4.2 13 4.2 13.3 4C13 4.2 13.3 4 13.4 4C13.2 4.1 13.2 4.1 13.3 4H13.2C15.1 3.9 15.1 1.7 13.2 1.8C11.3 1.9 10.3 3.2 9.6 4.4C8.7 6.1 8.5 8.1 8.5 9.9C8.5 11.7 8.8 13.7 9.6 15.4C10.2 16.6 11.3 17.9 13.2 18C15.1 18.3 15.1 16.1 13.2 16V16ZM47.9 16C47.6 16 48.2 16.1 47.9 16C48.2 16.1 47.5 15.7 47.7 15.8C47.3 15.4 47.1 14.9 46.8 14.4C46.2 13 46 11.5 46 10C46 8.5 46.2 7 46.8 5.6C47 5.1 47.2 4.8 47.6 4.3C47.6 4.2 47.7 4.2 48 4C47.7 4.2 48 4 48.1 4C47.9 4.1 47.9 4.1 48 4H47.9C49.8 3.9 49.8 1.7 47.9 1.8C46 2.1 45 3.4 44.3 4.6C43.4 6.3 43.2 8.3 43.2 10.1C43.2 11.9 43.5 13.9 44.3 15.6C44.9 16.8 46 18.1 47.9 18.2C49.8 18.3 49.8 16.1 47.9 16" fill="#94989B"/>
<path d="M33.5 10.1C33.5 8.60001 33.7 7.00001 34.3 5.50001C34.6 4.80001 35.2 3.40001 36.3 3.40001C36.9 3.40001 36.9 2.70001 36.3 2.70001C34.9 2.70001 34.2 3.90001 33.7 4.70001C32.8 6.40001 32.6 8.20001 32.6 10C32.6 10.6 33.5 10.6 33.5 10.1V10.1ZM21.9 10.1C21.9 8.60001 22.1 7.00001 22.7 5.50001C23 4.80001 23.6 3.40001 24.7 3.40001C25.3 3.40001 25.3 2.70001 24.7 2.70001C23.3 2.70001 22.6 3.90001 22.1 4.70001C21.2 6.40001 21 8.20001 21 10C21.1 10.6 21.9 10.6 21.9 10.1V10.1ZM10.4 10.1C10.4 8.60001 10.6 7.00001 11.2 5.50001C11.5 4.80001 12.1 3.40001 13.2 3.40001C13.8 3.40001 13.8 2.70001 13.2 2.70001C11.8 2.70001 11.1 3.90001 10.6 4.70001C9.7 6.40001 9.5 8.20001 9.5 10C9.5 10.6 10.4 10.6 10.4 10.1V10.1ZM45.1 10.1C45.1 8.60001 45.3 7.00001 45.9 5.50001C46.2 4.80001 46.8 3.40001 47.9 3.40001C48.5 3.40001 48.5 2.70001 47.9 2.70001C46.5 2.70001 45.8 3.90001 45.3 4.70001C44.4 6.40001 44.2 8.20001 44.2 10C44.2 10.6 45.1 10.6 45.1 10.1" fill="#D0D0D0"/>
<path d="M19.1 28.4V28.6C19.1 29.4 19.2 30 19.4 30.3C19.5 30.6 19.9 30.8 20.4 30.8C20.9 30.8 21.2 30.6 21.4 30.3C21.5 30.1 21.5 29.7 21.5 29.2V22H23.7V29.1C23.7 30 23.5 30.7 23.2 31.2C22.7 32.1 21.8 32.5 20.4 32.5C19 32.5 18.2 32.2 17.7 31.5C17.2 30.8 17 29.9 17 28.6V28.4H19.1V28.4ZM26 22.1H28.2V28.4C28.2 29.1 28.3 29.6 28.5 29.9C28.8 30.5 29.3 30.8 30.2 30.8C31.1 30.8 31.7 30.5 31.9 29.9C32.1 29.6 32.2 29.1 32.2 28.4V22.1H34.4V28.4C34.4 29.5 34.2 30.3 33.9 30.9C33.2 32 32 32.6 30.2 32.6C28.4 32.6 27.1 32 26.5 30.9C26.2 30.3 26 29.4 26 28.4V22.1ZM36.6 22.1H38.8V30.5H44.1V32.3H36.6V22.1Z" fill="white"/>
<path d="M16.1001 44.5V41.7C17.4001 41.6 18.2001 41.6 18.7001 41.4C19.5001 41.2 20.1001 40.9 20.6001 40.3C20.9001 39.9 21.2001 39.4 21.4001 38.8C21.5001 38.4 21.6001 38.2 21.6001 38H24.9001V58.6H20.8001V44.5H16.1001V44.5ZM45.0001 41.5C44.4001 42.1 43.6001 43.2 42.5001 44.7C41.4001 46.2 40.5001 47.8 39.8001 49.4C39.2001 50.7 38.7001 52.2 38.3001 54.1C37.8001 55.9 37.6001 57.5 37.6001 58.7H33.5001C33.6001 55 34.8001 51.2 37.1001 47.2C38.6001 44.7 39.8001 43 40.8001 42H30.7001L30.8001 38.4H45.0001V41.5" fill="#333333"/>
</svg>
